<svg width="512" height="512" viewBox="0 0 512 512" fill="none" xmlns="http://www.w3.org/2000/svg">
  <rect width="512" height="512" rx="128" fill="#2563EB"/>
  <path d="M256 128C194.144 128 144 178.144 144 240V320C144 355.346 172.654 384 208 384H304C339.346 384 368 355.346 368 320V240C368 178.144 317.856 128 256 128Z" fill="white"/>
  <circle cx="256" cy="256" r="48" fill="#2563EB"/>
  <path d="M208 192C199.163 192 192 199.163 192 208V272C192 280.837 199.163 288 208 288C216.837 288 224 280.837 224 272V208C224 199.163 216.837 192 208 192Z" fill="#2563EB"/>
  <path d="M304 192C295.163 192 288 199.163 288 208V272C288 280.837 295.163 288 304 288C312.837 288 320 280.837 320 272V208C320 199.163 312.837 192 304 192Z" fill="#2563EB"/>
</svg>
